<svg width="49" height="46" viewBox="0 0 49 46" fill="none" xmlns="http://www.w3.org/2000/svg">
<path d="M38.6638 45.7769C38.1185 44.9343 37.4493 43.9181 36.805 42.8771C35.9375 41.514 34.5 41.3405 33.1368 41.167C31.278 40.9192 29.3944 41.0679 27.5851 40.1509C27.139 39.9278 25.9989 40.7457 25.3297 41.2662C24.3879 42.0097 23.57 42.1336 22.8017 41.3157C22.1078 40.597 22.0582 38.8621 22.8513 38.3168C23.7187 37.6972 23.8675 36.8793 23.2478 36.2101C22.0334 34.9461 22.3804 33.4343 22.4052 31.9968C22.4052 31.0549 22.653 30.1379 22.8017 29.1961C22.9752 28.0065 22.5787 27.5108 21.389 27.5108C20.3233 27.5108 19.2328 27.5851 18.167 27.5603C17.6961 27.5356 17.2004 27.4116 16.7791 27.2134C15.8868 26.792 15.9116 26.3459 16.6552 25.6767C17.3491 25.0323 17.9935 24.264 18.4149 23.4461C18.8362 22.6034 18.4149 21.9095 17.4978 21.6368C16.3082 21.2899 15.8125 20.6455 15.8125 19.3319C15.7877 17.1756 13.0862 15.2177 11.0043 15.7629C10.4095 15.9116 9.76508 16.4817 9.44288 17.0517C9.02155 17.7953 8.55064 17.7705 8.05495 17.3987C6.71659 16.4321 5.22952 16.7047 3.76724 16.6799C2.875 16.6799 2.37931 17.0517 2.35452 17.9935C2.35452 18.3653 2.25538 18.7371 2.08189 19.0593C1.88362 19.431 1.53663 19.7532 1.23922 20.1002C0.842668 19.7037 0.148703 19.3567 0.123919 18.9353C-3.90142e-06 17.2004 0.0495651 15.4655 0.099134 13.7554C0.099134 13.5323 0.396548 13.1606 0.570039 13.1358C2.62715 13.0118 3.84159 11.5496 5.17995 10.2856C5.84913 9.66594 6.49353 9.36853 7.38577 9.51723C8.22844 9.66594 8.89762 9.54202 9.54202 8.7737C11.0539 6.98922 12.7144 5.32866 14.4741 3.46982C15.2425 4.28771 15.986 4.98167 16.5808 5.79956C17.2004 6.61745 17.9687 6.76616 18.861 6.61745C19.7532 6.46874 19.8028 5.79956 19.9515 5.05603C20.0506 4.6099 20.5463 4.06465 20.9677 3.91594C22.4547 3.42025 23.694 2.77585 24.1153 1.16486C25.2554 1.23922 25.5032 1.98275 25.6767 2.77585C25.8502 3.56896 25.8006 4.43641 26.0237 5.20473C26.1972 5.77478 26.569 6.56788 27.0151 6.71659C27.4364 6.86529 28.0808 6.27047 28.6261 5.97305C29.1218 5.70042 29.6422 5.42779 30.1131 5.10559C31.2532 4.31249 32.4181 3.54417 33.4838 2.67672C34.3761 1.95797 35.1196 1.06572 36.1358 0.0495605C37.3998 1.36314 38.5894 2.60236 39.7543 3.84159C40.5226 4.68426 41.2166 5.60128 42.0593 6.3696C42.4062 6.6918 43.0259 6.86529 43.4968 6.84051C44.4881 6.81572 44.6864 7.23706 44.6121 8.10452C44.5129 8.97197 44.6121 9.83943 44.5377 10.7069C44.2651 13.9289 45.653 16.5808 47.3631 19.1336C47.6606 19.5797 47.9332 20.0259 48.181 20.5215C48.8006 21.736 48.6271 22.5539 47.5614 23.4213C47.4127 23.5452 47.264 23.7187 47.0905 23.8179C45.7026 24.6853 45.3308 25.2058 46.7435 26.5442C47.5118 27.2877 47.7101 28.2295 46.7435 29.1218C46.0991 29.7166 46.2726 30.3858 46.347 31.2037C46.4709 32.4677 46.1239 33.8556 45.653 35.07C44.5873 37.7963 44.959 40.2004 46.7683 42.4558C47.4871 43.3481 48.305 44.3642 47.4871 45.4299C46.6444 46.5452 45.4795 45.8513 44.4386 45.4299C43.3728 45.0086 42.2575 44.4386 41.167 44.4138C40.3739 44.389 39.6056 45.2069 38.6638 45.7769Z" fill="black"/>
</svg>
