<svg width="85" height="80" viewBox="0 0 85 80" fill="none" xmlns="http://www.w3.org/2000/svg">
<g clip-path="url(#clip0_105_36)">
<path d="M67.2412 79.612C66.2929 78.1465 65.1291 76.3793 64.0084 74.5689C62.4998 72.1982 59.9998 71.8965 57.6291 71.5948C54.3964 71.1638 51.1205 71.4224 47.974 69.8276C47.1981 69.4396 45.2153 70.862 44.0515 71.7672C42.4136 73.0603 40.9912 73.2758 39.655 71.8534C38.4481 70.6034 38.3619 67.5862 39.7412 66.6379C41.2498 65.5603 41.5084 64.1379 40.4309 62.9741C38.3188 60.7758 38.9222 58.1465 38.9653 55.6465C38.9653 54.0086 39.3964 52.4138 39.655 50.7758C39.9567 48.7069 39.2671 47.8448 37.1981 47.8448C35.3447 47.8448 33.4481 47.9741 31.5947 47.931C30.7757 47.8879 29.9136 47.6724 29.1809 47.3276C27.6291 46.5948 27.6722 45.8189 28.9653 44.6551C30.1722 43.5345 31.2929 42.1982 32.0257 40.7758C32.7584 39.3103 32.0257 38.1034 30.4309 37.6293C28.3619 37.0258 27.4998 35.9051 27.4998 33.6207C27.4567 29.8707 22.7584 26.4655 19.1378 27.4138C18.1033 27.6724 16.9826 28.6638 16.4222 29.6551C15.6895 30.9482 14.8705 30.9051 14.0084 30.2586C11.6809 28.5776 9.09465 29.0517 6.55155 29.0086C4.99982 29.0086 4.13775 29.6551 4.09465 31.2931C4.09465 31.9396 3.92224 32.5862 3.62051 33.1465C3.27569 33.7931 2.67224 34.3534 2.155 34.9569C1.46534 34.2672 0.258444 33.6638 0.215341 32.931C-0.000176623 29.9138 0.0860303 26.8965 0.172237 23.9224C0.172237 23.5345 0.689479 22.8879 0.991203 22.8448C4.56879 22.6293 6.68086 20.0862 9.00844 17.8879C10.1722 16.8103 11.2929 16.2931 12.8447 16.5517C14.3102 16.8103 15.474 16.5948 16.5947 15.2586C19.224 12.1551 22.1119 9.26722 25.1722 6.03446C26.5084 7.45687 27.8015 8.66377 28.836 10.0862C29.9136 11.5086 31.2498 11.7672 32.8015 11.5086C34.3533 11.25 34.4395 10.0862 34.6981 8.79308C34.8705 8.01721 35.7326 7.06894 36.4653 6.81032C39.0515 5.94825 41.2067 4.82756 41.9395 2.02584C43.9222 2.15515 44.3533 3.44825 44.655 4.82756C44.9567 6.20687 44.8705 7.71549 45.2584 9.0517C45.5602 10.0431 46.2067 11.4224 46.9826 11.681C47.7153 11.9396 48.836 10.9051 49.7843 10.3879C50.6464 9.91377 51.5515 9.43963 52.3705 8.87928C54.3533 7.49997 56.3791 6.16377 58.2326 4.65515C59.7843 3.40515 61.0774 1.85342 62.8447 0.0861816C65.0429 2.37066 67.1119 4.52584 69.1377 6.68101C70.474 8.14653 71.6809 9.74135 73.1464 11.0776C73.7498 11.6379 74.8274 11.9396 75.6464 11.8965C77.3705 11.8534 77.7153 12.5862 77.586 14.0948C77.4136 15.6034 77.586 17.112 77.4567 18.6207C76.9826 24.2241 79.3964 28.8362 82.3705 33.2758C82.8878 34.0517 83.3619 34.8276 83.7929 35.6896C84.8705 37.8017 84.5688 39.2241 82.7153 40.7327C82.4567 40.9482 82.1981 41.25 81.8964 41.4224C79.4826 42.931 78.836 43.8362 81.2929 46.1638C82.6291 47.4569 82.974 49.0948 81.2929 50.6465C80.1722 51.681 80.474 52.8448 80.6033 54.2672C80.8188 56.4655 80.2153 58.8793 79.3964 60.9913C77.5429 65.7327 78.1895 69.9138 81.336 73.8362C82.586 75.3879 84.0084 77.1551 82.586 79.0086C81.1205 80.9482 79.0947 79.7413 77.2843 79.0086C75.4309 78.2758 73.4912 77.2845 71.5947 77.2413C70.2153 77.1982 68.8791 78.6207 67.2412 79.612Z" fill="white"/>
</g>
<defs>
<clipPath id="clip0_105_36">
<rect width="84.3534" height="80" fill="white"/>
</clipPath>
</defs>
</svg>
