<svg width="38" height="20" viewBox="0 0 38 20" fill="none" xmlns="http://www.w3.org/2000/svg">
<path d="M35.4204 4.40969L28.0251 2.36816C27.7424 1.03111 26.5538 0.0251465 25.1339 0.0251465C24.313 0.0251465 23.536 0.367221 22.9823 0.956073C22.9823 0.956073 8.04108 0.956073 8.03255 0.956073C5.02966 0.956073 2.30004 2.611 0.909922 5.27494C0.907547 5.27805 0.905988 5.28199 0.903687 5.28585C0.901312 5.28978 0.620988 5.87002 0.510848 6.16526C0.171816 7.06739 0 8.0171 0 8.98862C0 11.9142 1.1348 14.6664 3.19504 16.7377C5.25454 18.8081 7.99818 19.9577 10.9214 19.9749H10.937C11.8336 19.9631 12.5631 19.2235 12.5631 18.327C12.5631 17.4179 11.8235 16.6783 10.9144 16.6783H10.6402C9.03762 16.6783 7.73337 15.374 7.73337 13.7714C7.73337 13.0553 7.99343 12.3766 8.45893 11.8494C8.66905 11.9181 8.89319 11.9564 9.12594 11.9564H13.9197C14.3508 11.9564 14.7007 11.6065 14.7007 11.1754C14.7007 11.0699 14.6952 10.9661 14.6866 10.8638H17.4045C17.7739 11.5151 18.4729 11.9563 19.2734 11.9563H24.0671C24.4983 11.9563 24.8481 11.6065 24.8481 11.1753C24.8481 11.0699 24.8426 10.966 24.8341 10.8637H36.146C37.1629 10.8637 37.9931 10.0366 37.9954 9.02135L38 7.80928C38.0047 6.22857 36.9441 4.82985 35.4204 4.40969ZM9.12594 10.3944C8.8042 10.3944 8.54176 10.132 8.54176 9.81022V7.52347C8.54176 7.18919 8.81429 6.91665 9.14857 6.91665C9.4836 6.91665 9.75539 7.18919 9.75539 7.52347V8.39895C9.75539 8.83083 10.1053 9.17996 10.5364 9.17996H11.144C11.9672 9.17996 12.6748 9.68138 12.9794 10.3944H9.12594ZM19.2733 10.3944C18.9508 10.3944 18.6892 10.132 18.6892 9.81022V7.52347C18.6892 7.18919 18.961 6.91665 19.296 6.91665C19.631 6.91665 19.9028 7.18919 19.9028 7.52347V8.39895C19.9028 8.83083 20.2527 9.17996 20.6838 9.17996H21.2914C22.1138 9.17996 22.8222 9.68138 23.1268 10.3944H19.2733ZM36.1459 9.30182H24.3123C23.7133 8.33809 22.6667 7.68051 21.4648 7.6227V7.52354C21.4648 6.32788 20.4916 5.35472 19.296 5.35472C18.1002 5.35472 17.1272 6.32788 17.1272 7.52354V9.3019H14.1649C13.5659 8.33817 12.5193 7.68059 11.3174 7.62277V7.52362C11.3174 6.32795 10.3451 5.3548 9.14857 5.3548C7.95291 5.3548 6.97975 6.32795 6.97975 7.52362V9.81037C6.97975 10.1907 7.07973 10.5477 7.25392 10.8577C6.55886 11.6606 6.17144 12.6875 6.17144 13.7716C6.17144 16.2356 8.17623 18.2404 10.6403 18.2404H10.9145C10.9621 18.2404 11.0011 18.2795 11.0011 18.3271C11.0011 18.3732 10.9644 18.4107 10.9191 18.4131C8.41604 18.3958 6.06605 17.4095 4.30254 15.6366C2.53516 13.8598 1.56201 11.4989 1.56201 8.98877C1.56201 8.20546 1.70028 7.44086 1.97281 6.71448C2.06261 6.47468 2.16808 6.23807 2.28675 6.01237C2.28987 6.00614 2.29299 5.9999 2.29611 5.99441C2.29611 5.99367 2.29611 5.99285 2.29685 5.99285C3.41681 3.85135 5.61057 2.52135 8.02468 2.51823L8.01221 2.5307C7.7373 2.8056 7.7373 3.25077 8.01221 3.52493C8.14966 3.66239 8.32927 3.73111 8.50896 3.73111C8.68938 3.73111 8.86899 3.66239 9.00644 3.52493L10.0131 2.51823H10.7441L10.7317 2.5307C10.4575 2.8056 10.4575 3.25077 10.7317 3.52493C10.8691 3.66239 11.0487 3.73111 11.2291 3.73111C11.4088 3.73111 11.5884 3.66239 11.7259 3.52493L12.7326 2.51823H13.4636L13.4511 2.5307C13.177 2.8056 13.177 3.25077 13.4511 3.52493C13.5886 3.66239 13.7682 3.73111 13.9486 3.73111C14.1282 3.73111 14.3079 3.66239 14.4453 3.52493L15.452 2.51823H16.183L16.1706 2.5307C15.8965 2.8056 15.8965 3.25077 16.1706 3.52493C16.308 3.66239 16.4876 3.73111 16.668 3.73111C16.8477 3.73111 17.0273 3.66239 17.1648 3.52493L18.1715 2.51823H18.9033L18.89 2.5307C18.6159 2.8056 18.6159 3.25077 18.89 3.52493C19.0275 3.66239 19.2071 3.73111 19.3875 3.73111C19.5671 3.73111 19.7468 3.66239 19.8842 3.52493L20.8909 2.51823H23.3519C23.6073 2.51823 23.847 2.39324 23.9931 2.18321C24.2524 1.80989 24.6796 1.5873 25.1341 1.5873C25.9026 1.5873 26.5274 2.21208 26.5274 2.98061C26.5274 3.33204 26.7617 3.63975 27.1007 3.73349L35.0051 5.91559C35.2636 5.98669 35.4971 6.1093 35.6979 6.26858C35.6675 6.29121 34.9193 7.03318 34.9193 7.03318L34.2296 6.34279C34.0977 6.21083 33.9188 6.13662 33.7321 6.13662C33.5463 6.13662 33.3674 6.21083 33.2354 6.34279L32.545 7.03318L31.8546 6.34279C31.7227 6.21083 31.5438 6.13662 31.3579 6.13662C31.1712 6.13662 30.9923 6.21083 30.8604 6.34279L30.17 7.03318L29.4804 6.34279C29.2055 6.06789 28.7603 6.06789 28.4861 6.34279L27.7957 7.03318L27.1054 6.34279C26.8312 6.06789 26.386 6.06789 26.1111 6.34279C25.837 6.61688 25.837 7.06212 26.1111 7.33703L27.2983 8.52416C27.4302 8.65612 27.6091 8.73034 27.7957 8.73034C27.9816 8.73034 28.1604 8.65612 28.2925 8.52416L28.9829 7.83378L29.6733 8.52416C29.8052 8.65612 29.9841 8.73034 30.17 8.73034C30.3567 8.73034 30.5355 8.65612 30.6675 8.52416L31.3579 7.83378L32.0483 8.52416C32.1795 8.65612 32.3583 8.73034 32.545 8.73034C32.7317 8.73034 32.9105 8.65612 33.0417 8.52416L33.7321 7.83378L34.4225 8.52416C34.6974 8.79825 35.1418 8.79825 35.4167 8.52416L36.4195 7.54247C36.4312 7.62841 36.4335 9.01623 36.4335 9.01623C36.4326 9.17372 36.3037 9.30182 36.1459 9.30182Z" fill="black"/>
</svg>
